<?xml version="1.0" encoding="UTF-8"?><svg id="Layer_2" xmlns="http://www.w3.org/2000/svg" viewBox="0 0 31.5 42"><defs><style>.cls-1{fill:#9697a0;}</style></defs><path class="cls-1" d="M27.65,3.85l-3.59-3.85H0V42H31.5V8.4l-3.85-4.55ZM1.75,40.25V1.75s19.25,0,19.25,0V10.5h8.75v29.75H1.75Z"/><path class="cls-1" d="M1.75,4.37H14.88v1.75H1.75v-1.75Z"/><path class="cls-1" d="M1.75,8.75H11.93v1.75H1.75v-1.75Z"/><path class="cls-1" d="M1.75,13.13H14.88v1.75H1.75v-1.75Z"/><path class="cls-1" d="M1.75,17.5H11.93v1.75H1.75v-1.75Z"/><path class="cls-1" d="M1.75,21.87H14.88v1.75H1.75v-1.75Z"/><path class="cls-1" d="M1.75,26.25H11.93v1.75H1.75v-1.75Z"/><path class="cls-1" d="M1.75,30.62H14.88v1.75H1.75v-1.75Z"/><path class="cls-1" d="M1.75,35H11.93v1.75H1.75v-1.75Z"/></svg>