<?xml version="1.0" encoding="utf-8"?>
<!-- Generator: Adobe Illustrator 27.0.1, SVG Export Plug-In . SVG Version: 6.00 Build 0)  -->
<svg version="1.1" id="Layer_1" xmlns="http://www.w3.org/2000/svg" xmlns:xlink="http://www.w3.org/1999/xlink" x="0px" y="0px"
	 viewBox="0 0 36 36" style="enable-background:new 0 0 36 36;" xml:space="preserve">
<style type="text/css">
	.st0{fill:#FFFFFF;}
</style>
<g>
	<path class="st0" d="M13.7,0c0,1.1,0,2.1,0,3.1c1,0,1.9,0,2.9,0c0-0.9,0-2,0-3.1c1.1,0,2,0,3.1,0c0,1,0,2.1,0,3.1c1,0,1.9,0,2.9,0
		c0-0.9,0-2,0-3.1c1.1,0,2.1,0,3.1,0c0,0.9,0,2,0,3.1c1.1,0,2.6,0,3.6,0c3,0,3.8,1.1,3.8,3.8c0,0.7,0,2.8,0,3.6c1,0,1.9,0,2.9,0
		c0,1,0,1.9,0,3c-0.9,0-1.8,0-2.8,0c0,1.1,0,2,0,3.1c0.9,0,1.9,0,2.8,0c0,1,0,1.9,0,2.9c-0.9,0-1.8,0-2.8,0c0,1,0,1.9,0,3
		c0.9,0,1.9,0,2.8,0c0,1.1,0,2,0,3c-1,0-1.8,0-2.9,0c0,1.3,0,2.5,0,3.6c0,2.8-1.1,3.7-3.9,3.9c-1.2,0.1-2.2,0.1-3.5,0.1
		c0,1,0,1.8,0,2.9c-1.1,0-2.1,0-3.1,0c0-0.9,0-1.9,0-2.9c-1,0-1.9,0-3,0c0,0.9,0,1.9,0,2.9c-1.1,0-2,0-3.1,0c0-0.9,0-1.8,0-2.8
		c-1,0-1.8,0-2.9,0c0,0.9,0,1.9,0,2.9c-1,0-2.1,0-3.1,0c0-0.9,0-1.8,0-2.9c-1.4,0-2.5,0-3.9-0.1c-2.4-0.1-3.6-1.2-3.6-3.6
		c0-1.2,0-2.5,0-3.9c-1,0-1.9,0-2.9,0c0-1.1,0-2,0-3c0.9,0,1.8,0,2.8,0c0-1.1,0-2,0-3c-0.9,0-1.8,0-2.8,0c0-1,0-2,0-3
		c0.9,0,1.9,0,2.8,0c0-1.1,0-2,0-3c-0.9,0-1.9,0-2.8,0c0-1.1,0-2,0-3c0.9,0,1.8,0,2.9,0c0-1.4,0-2.7,0-4c0.2-2.2,1.3-3.4,3.7-3.4
		c1.3,0,2.5,0,4,0l0-3.1H13.7z M6.2,30.1c8,0,16,0,23.9,0c0-8,0-16,0-24c-8,0-15.9,0-23.9,0C6.2,14.2,6.2,22.1,6.2,30.1z"/>
	<path class="st0" d="M12.2,12.2c4,0,7.9,0,11.9,0c0,4,0,7.9,0,11.9c-4,0-7.9,0-11.9,0C12.2,20.2,12.2,16.3,12.2,12.2z"/>
</g>
</svg>
