<?xml version="1.0" encoding="utf-8"?>
<!-- Generator: Adobe Illustrator 27.0.1, SVG Export Plug-In . SVG Version: 6.00 Build 0)  -->
<svg version="1.1" id="Layer_2_00000124853125753803633370000002259988539229171127_"
	 xmlns="http://www.w3.org/2000/svg" xmlns:xlink="http://www.w3.org/1999/xlink" x="0px" y="0px" viewBox="0 0 36 36"
	 style="enable-background:new 0 0 36 36;" xml:space="preserve">
<g>
	<path d="M12.6,0v36l20.3-0.8V1.7L12.6,0z M30.4,33.1l-15,0.4L15.4,3.1l15,0.9L30.4,33.1L30.4,33.1z"/>
	<path d="M3.1,7v27.1l9.6,1.9V0L3.1,7z M11.1,33.5l-6-1V7.8l6-4.1V33.5z"/>
	<path d="M16.2,4.1l13.5,0.8v3.3L16.2,7.4C16.2,7.4,16.2,4.1,16.2,4.1z"/>
	<path d="M16.2,8.4l13.5,0.7v3.3l-13.5-0.7C16.2,11.7,16.2,8.4,16.2,8.4z"/>
	<polygon points="24.5,26.3 21.8,26.2 21.8,29 24.5,29.2 	"/>
</g>
</svg>
