<?xml version="1.0" encoding="UTF-8"?><svg id="Layer_2" xmlns="http://www.w3.org/2000/svg" viewBox="0 0 35.94 35.94"><defs><style>.cls-1{fill:#fff;}</style></defs><circle class="cls-1" cx="27.53" cy="8.44" r="2.19"/><circle class="cls-1" cx="27.53" cy="8.44" r="2.19"/><circle class="cls-1" cx="27.53" cy="8.44" r="2.19"/><circle class="cls-1" cx="27.53" cy="8.44" r="2.19"/><path class="cls-1" d="M26.88,0H9.07C4.07,0,0,4.07,0,9.07V26.88c0,5,4.07,9.07,9.07,9.07H26.88c5,0,9.07-4.07,9.07-9.07V9.07c0-5-4.07-9.07-9.07-9.07Zm5.16,26.88c0,2.84-2.31,5.16-5.16,5.16H9.07c-2.84,0-5.16-2.31-5.16-5.16V9.07c0-2.84,2.31-5.16,5.16-5.16H26.88c2.84,0,5.16,2.31,5.16,5.16V26.88Z"/><circle class="cls-1" cx="27.53" cy="8.44" r="2.19"/><path class="cls-1" d="M17.97,8.71c-5.1,0-9.26,4.15-9.26,9.26s4.15,9.26,9.26,9.26,9.26-4.15,9.26-9.26-4.15-9.26-9.26-9.26Zm0,14.6c-2.95,0-5.35-2.4-5.35-5.35s2.4-5.34,5.35-5.34,5.35,2.4,5.35,5.34-2.4,5.35-5.35,5.35Z"/></svg>