<?xml version="1.0" encoding="utf-8"?>
<!-- Generator: Adobe Illustrator 27.0.1, SVG Export Plug-In . SVG Version: 6.00 Build 0)  -->
<svg version="1.1" id="Layer_2_00000173860395067109552310000016352858964187267978_"
	 xmlns="http://www.w3.org/2000/svg" xmlns:xlink="http://www.w3.org/1999/xlink" x="0px" y="0px" viewBox="0 0 36 36"
	 style="enable-background:new 0 0 36 36;" xml:space="preserve">
<style type="text/css">
	.st0{fill:#FFFFFF;}
</style>
<path class="st0" d="M23.1,17.2c-0.1,0.9-0.9,1.7-1.8,1.7c-1,0-1.8-0.8-1.8-1.8s0.8-1.8,1.8-1.8C22.3,15.2,23.1,16.1,23.1,17.2
	C23.1,17.1,23.1,17.1,23.1,17.2L23.1,17.2L23.1,17.2L23.1,17.2z M14.8,15.2c-1,0.1-1.8,1-1.8,2c0,1,0.8,1.9,1.8,2l0,0
	c1,0,1.8-0.9,1.8-1.9c0,0,0-0.1,0-0.1l0,0c0,0,0-0.1,0-0.1C16.6,16,15.8,15.2,14.8,15.2L14.8,15.2L14.8,15.2z M33.7,3.8V36
	c-4.5-4-3.1-2.7-8.3-7.6l1,3.3H6c-2,0-3.7-1.7-3.7-3.7l0,0V3.8l0,0c0-2,1.7-3.7,3.7-3.7h24C32.1,0.1,33.7,1.8,33.7,3.8L33.7,3.8
	L33.7,3.8z M28.6,20.8c-0.1-3.8-1-7.4-2.6-10.6l0.1,0.1c-1.4-1.1-3.1-1.8-5-1.9h0l-0.3,0.3c1.7,0.5,3.2,1.2,4.5,2.3l0,0
	c-2.1-1.2-4.6-1.8-7.2-1.8c-2.2,0-4.4,0.5-6.3,1.3l0.1,0c-0.7,0.3-1.1,0.5-1.1,0.5c1.3-1.1,2.9-1.9,4.6-2.3l0.1,0l-0.2-0.2
	c-1.9,0.1-3.7,0.8-5.1,1.9l0,0c-1.6,3-2.5,6.6-2.6,10.4v0c1.2,1.7,3.1,2.7,5.3,2.7c0.1,0,0.1,0,0.2,0h0c0,0,0.7-0.8,1.2-1.5
	C13,21.7,11.9,21,11.2,20v0c0.3,0.2,0.7,0.4,0.7,0.4c1.8,1,4,1.6,6.3,1.6c1.8,0,3.5-0.4,5-1l-0.1,0c0.8-0.3,1.5-0.7,2.1-1.1l0,0
	c-0.8,1-1.9,1.8-3.2,2.1h0c0.5,0.7,1.2,1.5,1.2,1.5c0.1,0,0.1,0,0.2,0C25.5,23.6,27.4,22.5,28.6,20.8L28.6,20.8L28.6,20.8L28.6,20.8
	z"/>
</svg>
