<?xml version="1.0" encoding="UTF-8"?><svg id="Layer_2" xmlns="http://www.w3.org/2000/svg" viewBox="0 0 35.96 41.1"><defs><style>.cls-1{fill:#fff;}</style></defs><path class="cls-1" d="M23.86,19.52c-.09,1.08-1,1.93-2.1,1.93-1.16,0-2.1-.94-2.1-2.1s.94-2.1,2.1-2.1c1.17,.05,2.1,1.01,2.1,2.19,0,.03,0,.06,0,.1h0s0,0,0,0Zm-9.6-2.28c-1.18,.1-2.09,1.09-2.09,2.28s.92,2.18,2.09,2.28h0c1.17-.05,2.1-1.01,2.1-2.19,0-.03,0-.06,0-.1h0s0-.07,0-.11c0-1.17-.93-2.13-2.09-2.17h-.01ZM35.96,4.23V41.1c-5.18-4.58-3.52-3.06-9.54-8.65l1.09,3.8H4.21c-2.33,0-4.21-1.89-4.21-4.22H0V4.23H0C0,1.89,1.89,0,4.21,0H31.75c2.33,0,4.21,1.89,4.21,4.22h0s0,.01,0,.01Zm-5.86,19.48c-.07-4.38-1.16-8.49-3.03-12.13l.07,.15c-1.58-1.25-3.58-2.05-5.75-2.16h-.02s-.29,.33-.29,.33c1.97,.53,3.68,1.43,5.14,2.63l-.02-.02c-2.4-1.32-5.25-2.09-8.29-2.09-2.56,0-4.99,.55-7.17,1.54l.11-.04c-.76,.35-1.21,.6-1.21,.6,1.51-1.24,3.33-2.17,5.31-2.67l.1-.02-.21-.25c-2.2,.11-4.19,.91-5.8,2.17l.02-.02c-1.8,3.49-2.89,7.6-2.96,11.96v.02c1.37,1.9,3.58,3.13,6.07,3.13,.07,0,.14,0,.21,0h-.01s.76-.92,1.38-1.71c-1.48-.38-2.73-1.24-3.58-2.41v-.02c.29,.21,.79,.49,.83,.51,2.07,1.15,4.54,1.83,7.17,1.83,2.04,0,3.98-.41,5.75-1.14l-.1,.04c.9-.35,1.68-.75,2.4-1.24l-.04,.03c-.9,1.2-2.19,2.08-3.67,2.44h-.04c.62,.79,1.36,1.67,1.36,1.67,.06,0,.12,0,.19,0,2.5,0,4.72-1.22,6.08-3.1l.02-.02h0Z"/></svg>