<?xml version="1.0" encoding="utf-8"?>
<!-- Generator: Adobe Illustrator 27.0.1, SVG Export Plug-In . SVG Version: 6.00 Build 0)  -->
<svg version="1.1" id="Layer_2_00000026124788070600146860000002220438229679878591_"
	 xmlns="http://www.w3.org/2000/svg" xmlns:xlink="http://www.w3.org/1999/xlink" x="0px" y="0px" viewBox="0 0 36 36"
	 style="enable-background:new 0 0 36 36;" xml:space="preserve">
<style type="text/css">
	.st0{fill:#9697A0;}
</style>
<g>
	<path class="st0" d="M11.7,19.7c0,2.3-1.8,4.1-4.1,4.1S3.4,22,3.4,19.7s1.8-4.1,4.1-4.1S11.7,17.4,11.7,19.7"/>
	<path class="st0" d="M9.1,24.9H6c-2.2,0-4.1,1.7-4.4,3.9l-0.4,3.6c0,0.5,0.2,0.9,0.7,1c1.8,0.4,3.6,0.6,5.6,0.6
		c0.8,0,1.6,0,2.3-0.1l0.4-3.2c0.2-1.6,1-3.1,2.2-4.1C11.7,25.6,10.5,24.9,9.1,24.9L9.1,24.9z"/>
	<path class="st0" d="M32.6,19.7c0,2.3-1.8,4.1-4.1,4.1s-4.1-1.8-4.1-4.1s1.8-4.1,4.1-4.1S32.6,17.4,32.6,19.7"/>
	<path class="st0" d="M34.3,28.8c-0.3-2.2-2.1-3.9-4.4-3.9h-3.1c-1.4,0-2.6,0.6-3.4,1.7c1.2,1,2,2.4,2.2,4.1l0.4,3.2
		c0.8,0.1,1.6,0.1,2.3,0.1c2,0,3.8-0.2,5.6-0.6c0.5-0.1,0.8-0.5,0.7-1C34.7,32.4,34.3,28.8,34.3,28.8z"/>
	<path class="st0" d="M19.5,27h-3c-2.2,0-4.1,1.7-4.4,3.9l-0.4,3.6c0,0.5,0.2,0.9,0.7,1C14.2,35.8,16,36,18,36s3.8-0.2,5.6-0.6
		c0.5-0.1,0.8-0.5,0.7-1l-0.4-3.6C23.6,28.7,21.7,27,19.5,27L19.5,27z"/>
	<path class="st0" d="M22.1,21.8c0,2.3-1.8,4.1-4.1,4.1s-4.1-1.8-4.1-4.1s1.8-4.1,4.1-4.1S22.1,19.5,22.1,21.8"/>
	<path class="st0" d="M11,11.5h4.1l1.6,3.1c0.5,1.1,2.1,1.1,2.6,0l1.6-3.1H25c1.1,0,2-0.9,2-2V2c0-1.1-0.9-2-2-2H11C9.9,0,9,0.9,9,2
		v7.4C9,10.6,9.9,11.5,11,11.5L11,11.5L11,11.5z M22.7,4.3c0.8,0,1.4,0.6,1.4,1.4s-0.6,1.4-1.4,1.4c-0.8,0-1.4-0.6-1.4-1.4
		S21.9,4.3,22.7,4.3z M18,4.3c0.8,0,1.4,0.6,1.4,1.4S18.8,7.2,18,7.2c-0.8,0-1.4-0.6-1.4-1.4S17.2,4.3,18,4.3z M13.3,4.3
		c0.8,0,1.4,0.6,1.4,1.4s-0.6,1.4-1.4,1.4c-0.8,0-1.4-0.6-1.4-1.4S12.5,4.3,13.3,4.3z"/>
</g>
</svg>
