<?xml version="1.0" encoding="UTF-8"?><svg id="Layer_2" xmlns="http://www.w3.org/2000/svg" viewBox="0 0 35.96 38.59"><defs><style>.cls-1{fill:#9697a0;}</style></defs><path class="cls-1" d="M11.19,21.11c0,2.45-1.98,4.43-4.43,4.43s-4.43-1.98-4.43-4.43,1.98-4.43,4.43-4.43,4.43,1.98,4.43,4.43"/><path class="cls-1" d="M8.42,26.72h-3.29c-2.36,0-4.39,1.79-4.68,4.15L0,34.69c-.04,.49,.24,.98,.73,1.06,1.91,.41,3.9,.61,6.02,.61,.85,0,1.71-.04,2.52-.12l.41-3.42c.2-1.75,1.1-3.29,2.4-4.35-.85-1.06-2.2-1.75-3.66-1.75h0Z"/><path class="cls-1" d="M33.63,21.11c0,2.45-1.98,4.43-4.43,4.43s-4.43-1.98-4.43-4.43,1.98-4.43,4.43-4.43,4.43,1.98,4.43,4.43"/><path class="cls-1" d="M35.5,30.86c-.28-2.36-2.28-4.15-4.68-4.15h-3.29c-1.46,0-2.81,.69-3.66,1.79,1.3,1.06,2.2,2.6,2.4,4.35l.41,3.42c.81,.08,1.67,.12,2.52,.12,2.11,0,4.11-.2,6.02-.61,.49-.12,.81-.57,.73-1.06l-.45-3.86Z"/><path class="cls-1" d="M19.6,28.95h-3.25c-2.4,0-4.39,1.79-4.68,4.15l-.45,3.82c-.04,.49,.24,.98,.73,1.06,1.91,.41,3.9,.61,6.02,.61s4.11-.2,6.02-.61c.49-.12,.81-.57,.73-1.06l-.45-3.82c-.28-2.36-2.28-4.15-4.68-4.15Z"/><path class="cls-1" d="M22.41,23.34c0,2.45-1.98,4.43-4.43,4.43s-4.43-1.98-4.43-4.43,1.98-4.43,4.43-4.43,4.43,1.98,4.43,4.43"/><path class="cls-1" d="M10.49,12.28h4.43l1.67,3.29c.57,1.14,2.24,1.14,2.81,0l1.67-3.29h4.43c1.18,0,2.16-.98,2.16-2.16V2.16c0-1.18-.98-2.16-2.16-2.16H10.49c-1.18,0-2.16,.98-2.16,2.16v7.93c0,1.22,.98,2.2,2.16,2.2h0Zm12.57-7.73c.85,0,1.55,.69,1.55,1.55s-.69,1.55-1.55,1.55-1.55-.69-1.55-1.55,.69-1.55,1.55-1.55Zm-5.08,0c.85,0,1.55,.69,1.55,1.55s-.69,1.55-1.55,1.55-1.55-.69-1.55-1.55,.69-1.55,1.55-1.55Zm-5.08,0c.85,0,1.55,.69,1.55,1.55s-.69,1.55-1.55,1.55-1.55-.69-1.55-1.55,.69-1.55,1.55-1.55Z"/></svg>