<?xml version="1.0" encoding="utf-8"?>
<!-- Generator: Adobe Illustrator 26.5.0, SVG Export Plug-In . SVG Version: 6.00 Build 0)  -->
<svg version="1.1" id="Layer_1" xmlns="http://www.w3.org/2000/svg" xmlns:xlink="http://www.w3.org/1999/xlink" x="0px" y="0px"
	 viewBox="0 0 36 42" style="enable-background:new 0 0 36 42;" xml:space="preserve">
<style type="text/css">
	.st0{fill:#FFFFFF;}
</style>
<g>
	<path class="st0" d="M0,34.5c0-1.4,0-2.8,0-4.3c12,0,24,0,36,0c0,1.4,0,2.8,0,4.3C24,34.5,12,34.5,0,34.5z"/>
	<path class="st0" d="M0,11.9C0,10.4,0,9,0,7.5c12,0,23.9,0,36,0c0,1.4,0,2.9,0,4.4C24,11.9,12.1,11.9,0,11.9z"/>
	<path class="st0" d="M36,18.8c0,1.5,0,2.9,0,4.4c-12,0-23.9,0-35.9,0c0-1.4,0-2.9,0-4.4C12,18.8,23.9,18.8,36,18.8z"/>
</g>
</svg>
