<?xml version="1.0" encoding="utf-8"?>
<!-- Generator: Adobe Illustrator 27.0.1, SVG Export Plug-In . SVG Version: 6.00 Build 0)  -->
<svg version="1.1" id="Layer_1" xmlns="http://www.w3.org/2000/svg" xmlns:xlink="http://www.w3.org/1999/xlink" x="0px" y="0px"
	 viewBox="0 0 36 36" style="enable-background:new 0 0 36 36;" xml:space="preserve">
<style type="text/css">
	.st0{fill:#DDDCDB;}
	.st1{fill:#FEDA47;}
	.st2{fill:#EDA920;}
	.st3{fill:#CDCCCC;}
</style>
<g>
	<path class="st0" d="M18,0L7.5,6.1v4.4L2.7,7.7v18.9L19,36v-5.5l3.8,2.2l10.6-6.1V8.8L18,0z M32.3,25.9l-9.5,5.5L18,28.7v5.5
		L3.7,25.9V9.4l4.8,2.8V6.7L18,1.2l14.3,8.3L32.3,25.9L32.3,25.9z"/>
	<g>
		<polygon class="st1" points="16.4,11.3 11.7,14.1 18,17.6 22.8,14.9 		"/>
	</g>
	<g>
		<polygon class="st2" points="22.8,22.3 18,25.1 18,17.6 22.8,14.9 		"/>
	</g>
	<polygon class="st3" points="18,3.1 11.7,6.7 23.5,13.5 29.9,9.9 	"/>
	<polygon class="st3" points="24.3,14.9 30.7,11.3 30.7,25.1 24.3,28.7 	"/>
	<polygon class="st3" points="5.3,12.2 16.4,18.6 16.4,31.4 5.3,25.1 	"/>
</g>
</svg>
