<svg width="151" height="23" viewBox="0 0 151 23" fill="none" xmlns="http://www.w3.org/2000/svg">
<path fill-rule="evenodd" clip-rule="evenodd" d="M143.946 13.3815L146.718 21.9992H150.206L147.046 12.6732C148.02 12.1616 148.676 11.4435 149.013 10.5187C149.351 9.59399 149.52 8.48235 149.52 7.18378C149.52 4.99983 149.103 3.42092 148.268 2.44699C147.434 1.47307 146.042 0.986115 144.095 0.986115H138.729V21.9992H142.068V13.3815H143.946ZM146.107 5.94423C146.157 6.33774 146.181 6.75091 146.181 7.18376C146.181 7.61662 146.157 8.02979 146.107 8.4233C146.057 8.8168 145.963 9.16111 145.824 9.45624C145.685 9.75137 145.476 9.98255 145.198 10.1498C144.919 10.317 144.562 10.4007 144.125 10.4007H142.068V3.96688H144.125C144.562 3.96688 144.919 4.0505 145.198 4.21774C145.476 4.38498 145.685 4.61616 145.824 4.91129C145.963 5.20641 146.057 5.55073 146.107 5.94423Z" fill="white"/>
<path fill-rule="evenodd" clip-rule="evenodd" d="M126.924 21.9992V0.986102H135.837V3.96689H130.262V9.92845H135.062V12.9092H130.262V19.0184H135.837V21.9992H126.924Z" fill="white"/>
<path fill-rule="evenodd" clip-rule="evenodd" d="M121.319 21.9992L117.891 13.3519L116.281 16.5983V21.9992H112.942V0.986102H116.281V10.8729L120.902 0.986102H124.271L120.008 9.69235L124.926 21.9992H121.319Z" fill="white"/>
<path fill-rule="evenodd" clip-rule="evenodd" d="M110.14 16.4213C110.1 17.3657 109.931 18.2264 109.633 19.0036C109.335 19.7808 108.918 20.4153 108.381 20.9072C107.904 21.3597 107.378 21.6942 106.801 21.9106C106.225 22.127 105.529 22.2353 104.715 22.2353C103.721 22.2353 102.896 22.0631 102.24 21.7188C101.584 21.3745 101.038 20.9465 100.601 20.435C100.243 20.0218 99.9647 19.5594 99.766 19.0479C99.5673 18.5363 99.4132 17.9264 99.3039 17.2181C99.1946 16.5098 99.1251 15.6884 99.0953 14.7538C99.0654 13.8192 99.0505 12.7322 99.0505 11.4926C99.0505 10.2531 99.0654 9.16605 99.0953 8.23147C99.1251 7.2969 99.1946 6.47547 99.3039 5.76716C99.4132 5.05885 99.5673 4.44893 99.766 3.93737C99.9647 3.42582 100.243 2.96346 100.601 2.55028C101.038 2.03872 101.584 1.61079 102.24 1.26647C102.896 0.922156 103.721 0.75 104.715 0.75C105.529 0.75 106.235 0.863131 106.831 1.0894C107.427 1.31566 107.964 1.65505 108.441 2.10758C108.978 2.59947 109.385 3.22415 109.663 3.98164C109.941 4.73914 110.1 5.59008 110.14 6.53449H106.801C106.781 6.14099 106.737 5.76716 106.667 5.41301C106.598 5.05885 106.473 4.75389 106.295 4.49811C106.136 4.26201 105.932 4.0751 105.683 3.93737C105.435 3.79965 105.112 3.73078 104.715 3.73078C104.317 3.73078 103.994 3.80457 103.746 3.95213C103.497 4.09969 103.294 4.29152 103.135 4.52763C102.797 5.03918 102.588 5.84586 102.509 6.94767C102.429 8.04948 102.389 9.56445 102.389 11.4926C102.389 13.4208 102.429 14.9358 102.509 16.0376C102.588 17.1394 102.797 17.9461 103.135 18.4576C103.294 18.6937 103.497 18.8856 103.746 19.0331C103.994 19.1807 104.317 19.2545 104.715 19.2545C105.112 19.2545 105.435 19.1856 105.683 19.0479C105.932 18.9102 106.136 18.7232 106.295 18.4871C106.473 18.2117 106.598 17.8969 106.667 17.5427C106.737 17.1886 106.781 16.8148 106.801 16.4213H110.14Z" fill="white"/>
<path fill-rule="evenodd" clip-rule="evenodd" d="M92.7008 21.9992V0.986102H96.0396V21.9992H92.7008Z" fill="white"/>
<path fill-rule="evenodd" clip-rule="evenodd" d="M88.5273 12.2305C89.3819 11.2073 89.8092 9.594 89.8092 7.39037C89.8092 5.18675 89.3819 3.56848 88.5273 2.53553C87.6727 1.50258 86.2816 0.986115 84.3538 0.986115H79.0177V21.9992H82.3565V13.7651H84.3538C86.2816 13.7651 87.6727 13.2536 88.5273 12.2305ZM86.0232 4.88177C86.3213 5.4917 86.4704 6.32789 86.4704 7.39035C86.4704 8.45282 86.3213 9.28408 86.0232 9.88418C85.7251 10.4843 85.1289 10.7843 84.2346 10.7843H82.3565V3.96688H84.2346C85.1289 3.96688 85.7251 4.27184 86.0232 4.88177Z" fill="white"/>
<path fill-rule="evenodd" clip-rule="evenodd" d="M73.0257 3.96689V21.9992H69.6869V3.96689H66.1394V0.986102H76.603V3.96689H73.0257Z" fill="#EEA900"/>
<path fill-rule="evenodd" clip-rule="evenodd" d="M59.1637 13.3815L61.9361 21.9992H65.4239L62.264 12.6732C63.2378 12.1616 63.8936 11.4435 64.2315 10.5187C64.5694 9.59399 64.7383 8.48235 64.7383 7.18378C64.7383 4.99983 64.3209 3.42092 63.4862 2.44699C62.6515 1.47307 61.2604 0.986115 59.3127 0.986115H53.9468V21.9992H57.2856V13.3815H59.1637ZM61.3249 5.94423C61.3746 6.33774 61.3995 6.75091 61.3995 7.18376C61.3995 7.61662 61.3746 8.02979 61.3249 8.4233C61.2753 8.8168 61.1809 9.16111 61.0417 9.45624C60.9026 9.75137 60.6939 9.98255 60.4157 10.1498C60.1375 10.317 59.7797 10.4007 59.3425 10.4007H57.2856V3.96688H59.3425C59.7797 3.96688 60.1375 4.0505 60.4157 4.21774C60.6939 4.38498 60.9026 4.61616 61.0417 4.91129C61.1809 5.20641 61.2753 5.55073 61.3249 5.94423Z" fill="#EEA900"/>
<path fill-rule="evenodd" clip-rule="evenodd" d="M47.6269 17.8379L48.4914 21.9992H51.9793L46.822 0.986115H43.5726L38.3557 21.9992H41.8734L42.7081 17.8379H47.6269ZM43.3639 14.8571L45.1824 6.0623L47.0008 14.8571H43.3639Z" fill="#EEA900"/>
<path fill-rule="evenodd" clip-rule="evenodd" d="M37.3123 12.2305C38.1669 11.2073 38.5942 9.594 38.5942 7.39037C38.5942 5.18675 38.1669 3.56848 37.3123 2.53553C36.4577 1.50258 35.0666 0.986115 33.1388 0.986115H27.8027V21.9992H31.1415V13.7651H33.1388C35.0666 13.7651 36.4577 13.2536 37.3123 12.2305ZM34.8082 4.88177C35.1063 5.4917 35.2554 6.32789 35.2554 7.39035C35.2554 8.45282 35.1063 9.28408 34.8082 9.88418C34.5101 10.4843 33.9139 10.7843 33.0196 10.7843H31.1415V3.96688H33.0196C33.9139 3.96688 34.5101 4.27184 34.8082 4.88177Z" fill="#EEA900"/>
<path fill-rule="evenodd" clip-rule="evenodd" d="M25.0005 16.4213C24.9607 17.3657 24.7918 18.2264 24.4937 19.0036C24.1956 19.7808 23.7782 20.4153 23.2416 20.9072C22.7647 21.3597 22.238 21.6942 21.6617 21.9106C21.0853 22.127 20.3897 22.2353 19.5749 22.2353C18.5812 22.2353 17.7564 22.0631 17.1006 21.7188C16.4448 21.3745 15.8982 20.9465 15.461 20.435C15.1033 20.0218 14.825 19.5594 14.6263 19.0479C14.4276 18.5363 14.2735 17.9264 14.1642 17.2181C14.0549 16.5098 13.9854 15.6884 13.9556 14.7538C13.9258 13.8192 13.9108 12.7322 13.9108 11.4926C13.9108 10.2531 13.9258 9.16605 13.9556 8.23147C13.9854 7.2969 14.0549 6.47547 14.1642 5.76716C14.2735 5.05885 14.4276 4.44893 14.6263 3.93737C14.825 3.42582 15.1033 2.96346 15.461 2.55028C15.8982 2.03872 16.4448 1.61079 17.1006 1.26647C17.7564 0.922156 18.5812 0.75 19.5749 0.75C20.3897 0.75 21.0953 0.863131 21.6915 1.0894C22.2877 1.31566 22.8243 1.65505 23.3013 2.10758C23.8379 2.59947 24.2453 3.22415 24.5235 3.98164C24.8017 4.73914 24.9607 5.59008 25.0005 6.53449H21.6617C21.6418 6.14099 21.5971 5.76716 21.5275 5.41301C21.458 5.05885 21.3337 4.75389 21.1549 4.49811C20.9959 4.26201 20.7922 4.0751 20.5438 3.93737C20.2953 3.79965 19.9724 3.73078 19.5749 3.73078C19.1774 3.73078 18.8545 3.80457 18.6061 3.95213C18.3576 4.09969 18.1539 4.29152 17.9949 4.52763C17.6571 5.03918 17.4484 5.84586 17.3689 6.94767C17.2894 8.04948 17.2497 9.56445 17.2497 11.4926C17.2497 13.4208 17.2894 14.9358 17.3689 16.0376C17.4484 17.1394 17.6571 17.9461 17.9949 18.4576C18.1539 18.6937 18.3576 18.8856 18.6061 19.0331C18.8545 19.1807 19.1774 19.2545 19.5749 19.2545C19.9724 19.2545 20.2953 19.1856 20.5438 19.0479C20.7922 18.9102 20.9959 18.7232 21.1549 18.4871C21.3337 18.2117 21.458 17.8969 21.5275 17.5427C21.5971 17.1886 21.6418 16.8148 21.6617 16.4213H25.0005Z" fill="white"/>
<path fill-rule="evenodd" clip-rule="evenodd" d="M10.3037 12.2313C11.1583 11.2082 11.5856 9.59483 11.5856 7.3912C11.5856 5.18757 11.1583 3.56931 10.3037 2.53636C9.44915 1.50341 8.05799 0.986938 6.13021 0.986938H0.794075V22H4.13289V13.7659H6.13021C8.05799 13.7659 9.44915 13.2544 10.3037 12.2313ZM7.79961 4.88177C8.09772 5.4917 8.24678 6.32789 8.24678 7.39035C8.24678 8.45282 8.09772 9.28408 7.79961 9.88418C7.5015 10.4843 6.90529 10.7843 6.01096 10.7843H4.13288V3.96688H6.01096C6.90529 3.96688 7.5015 4.27184 7.79961 4.88177Z" fill="white"/>
</svg>
