<?xml version="1.0" encoding="UTF-8"?><svg id="Layer_2" xmlns="http://www.w3.org/2000/svg" viewBox="0 0 36.01 36.01"><defs><style>.cls-1{fill:#9697a0;}</style></defs><path class="cls-1" d="M26.5,16.99v12.14c0,.75,.66,1.46,1.43,1.43,.77-.03,1.43-.63,1.43-1.43v-12.14c0-.75-.66-1.46-1.43-1.43-.77,.04-1.43,.63-1.43,1.43h0Z"/><path class="cls-1" d="M0,1.43v31.81C0,33.66,0,34.1,0,34.52v.06c0,.77,.65,1.43,1.43,1.43h31.81c.43,0,.86,0,1.29,0h.06c.75,0,1.46-.66,1.43-1.43-.03-.77-.63-1.43-1.43-1.43H2.78c-.43,0-.86,0-1.29,0h-.06c.48,.48,.95,.95,1.43,1.43V2.77c0-.43,0-.86,0-1.29v-.06C2.86,.68,2.2-.03,1.43,0,.66,.03,0,.62,0,1.43h0Z"/><path class="cls-1" d="M1.81,24.3c1.73-.41,3.46-.82,5.2-1.23,.24-.06,.49-.11,.73-.18-.46-.12-.93-.24-1.39-.37,.66,.56,1.31,1.12,1.97,1.68,1.05,.89,2.09,1.78,3.14,2.67,.24,.2,.48,.41,.72,.62,.35,.3,.73,.46,1.2,.39,.46-.06,.79-.3,1.04-.68,.45-.67,.9-1.34,1.35-2.01,1.08-1.61,2.15-3.22,3.23-4.83,1.3-1.96,2.61-3.91,3.92-5.87,1.13-1.68,2.25-3.37,3.38-5.05,.55-.82,1.11-1.63,1.64-2.46,0-.01,.02-.02,.02-.03-.54,.22-1.08,.44-1.61,.66,.88,.33,1.77,.67,2.66,1,1.41,.53,2.82,1.07,4.23,1.6,.32,.12,.64,.24,.97,.37,.33,.12,.81,.03,1.1-.14,.3-.17,.58-.51,.66-.85,.08-.37,.07-.77-.14-1.1-.21-.33-.49-.52-.85-.66-.88-.33-1.77-.67-2.66-1-1.41-.53-2.82-1.07-4.23-1.6-.32-.12-.64-.24-.97-.37-.13-.02-.25-.03-.38-.05-.2,0-.38,.03-.55,.12-.3,.13-.5,.31-.68,.58-.45,.67-.9,1.34-1.35,2.01-1.08,1.61-2.15,3.22-3.23,4.83-1.3,1.96-2.61,3.91-3.92,5.87-1.13,1.68-2.25,3.37-3.38,5.05-.55,.82-1.11,1.63-1.64,2.46,0,.01-.02,.02-.02,.03,.75-.1,1.49-.19,2.24-.29-1.54-1.32-3.09-2.63-4.64-3.95-.33-.28-.66-.56-.98-.84-.07-.06-.13-.11-.2-.17-.42-.35-.85-.5-1.4-.38-.02,0-.04,0-.06,.01-.98,.22-1.95,.46-2.93,.69-.98,.23-1.96,.46-2.95,.7-.73,.17-1.23,1.04-.99,1.76,.24,.76,.97,1.19,1.75,1h0Z"/><path class="cls-1" d="M23.87,23.07l1.71-1.71c.91-.91,1.82-1.82,2.73-2.73l.63-.63h-2.02l1.71,1.71,2.73,2.73c.21,.21,.42,.42,.63,.63,.53,.53,1.5,.57,2.02,0,.52-.57,.56-1.46,0-2.02-.57-.57-1.14-1.14-1.71-1.71l-2.73-2.73-.63-.63c-.55-.55-1.47-.55-2.02,0l-5.07,5.07c-.53,.53-.57,1.5,0,2.02,.57,.52,1.46,.56,2.02,0h0Z"/><path class="cls-1" d="M13.4,14.95V2.81c0-.75-.66-1.46-1.43-1.43-.77,.03-1.43,.63-1.43,1.43V14.95c0,.75,.66,1.46,1.43,1.43,.77-.03,1.43-.62,1.43-1.43Z"/><path class="cls-1" d="M16.03,8.87l-1.71,1.71-2.73,2.73-.63,.63h2.02l-5.07-5.07c-.53-.53-1.5-.57-2.02,0-.52,.57-.56,1.46,0,2.02,.57,.57,1.14,1.14,1.71,1.71l2.73,2.73,.63,.63c.55,.55,1.47,.55,2.02,0l5.07-5.07c.53-.53,.57-1.5,0-2.02-.57-.53-1.45-.57-2.02,0h0Z"/></svg>