<?xml version="1.0" encoding="utf-8"?>
<!-- Generator: Adobe Illustrator 27.0.1, SVG Export Plug-In . SVG Version: 6.00 Build 0)  -->
<svg version="1.1" id="Layer_2_00000035526790469503791330000000261732444282833839_"
	 xmlns="http://www.w3.org/2000/svg" xmlns:xlink="http://www.w3.org/1999/xlink" x="0px" y="0px" viewBox="0 0 36 36"
	 style="enable-background:new 0 0 36 36;" xml:space="preserve">
<style type="text/css">
	.st0{fill:#9697A0;}
</style>
<path class="st0" d="M26.5,17v12.1c0,0.7,0.7,1.5,1.4,1.4s1.4-0.6,1.4-1.4V17c0-0.7-0.7-1.5-1.4-1.4C27.1,15.6,26.5,16.2,26.5,17
	C26.5,17,26.5,17,26.5,17z"/>
<path class="st0" d="M0,1.4v31.8c0,0.4,0,0.9,0,1.3v0.1C0,35.3,0.7,36,1.4,36h31.8c0.4,0,0.9,0,1.3,0h0.1c0.7,0,1.5-0.7,1.4-1.4
	c0-0.8-0.6-1.4-1.4-1.4H2.8c-0.4,0-0.9,0-1.3,0H1.4c0.5,0.5,0.9,0.9,1.4,1.4V2.8c0-0.4,0-0.9,0-1.3V1.4C2.9,0.7,2.2,0,1.4,0
	S0,0.6,0,1.4L0,1.4z"/>
<path class="st0" d="M1.8,24.3c1.7-0.4,3.5-0.8,5.2-1.2C7.2,23,7.5,23,7.7,22.9c-0.5-0.1-0.9-0.2-1.4-0.4c0.7,0.6,1.3,1.1,2,1.7
	c1,0.9,2.1,1.8,3.1,2.7c0.2,0.2,0.5,0.4,0.7,0.6c0.3,0.3,0.7,0.5,1.2,0.4c0.5-0.1,0.8-0.3,1-0.7c0.4-0.7,0.9-1.3,1.3-2
	c1.1-1.6,2.1-3.2,3.2-4.8c1.3-2,2.6-3.9,3.9-5.9c1.1-1.7,2.2-3.4,3.4-5c0.5-0.8,1.1-1.6,1.6-2.5c0,0,0,0,0,0
	c-0.5,0.2-1.1,0.4-1.6,0.7c0.9,0.3,1.8,0.7,2.7,1c1.4,0.5,2.8,1.1,4.2,1.6c0.3,0.1,0.6,0.2,1,0.4c0.3,0.1,0.8,0,1.1-0.1
	c0.3-0.2,0.6-0.5,0.7-0.8C36,9.2,36,8.8,35.8,8.5C35.6,8.2,35.3,8,35,7.8c-0.9-0.3-1.8-0.7-2.7-1c-1.4-0.5-2.8-1.1-4.2-1.6
	c-0.3-0.1-0.6-0.2-1-0.4c-0.1,0-0.2,0-0.4,0c-0.2,0-0.4,0-0.5,0.1c-0.3,0.1-0.5,0.3-0.7,0.6c-0.4,0.7-0.9,1.3-1.3,2
	c-1.1,1.6-2.1,3.2-3.2,4.8c-1.3,2-2.6,3.9-3.9,5.9c-1.1,1.7-2.2,3.4-3.4,5c-0.5,0.8-1.1,1.6-1.6,2.5c0,0,0,0,0,0
	c0.7-0.1,1.5-0.2,2.2-0.3c-1.5-1.3-3.1-2.6-4.6-3.9c-0.3-0.3-0.7-0.6-1-0.8c-0.1-0.1-0.1-0.1-0.2-0.2C8,20.2,7.5,20,7,20.1
	c0,0,0,0-0.1,0c-1,0.2-1.9,0.5-2.9,0.7c-1,0.2-2,0.5-2.9,0.7c-0.7,0.2-1.2,1-1,1.8C0.3,24,1,24.5,1.8,24.3L1.8,24.3L1.8,24.3z"/>
<path class="st0" d="M23.9,23.1l1.7-1.7c0.9-0.9,1.8-1.8,2.7-2.7l0.6-0.6h-2l1.7,1.7l2.7,2.7c0.2,0.2,0.4,0.4,0.6,0.6
	c0.5,0.5,1.5,0.6,2,0s0.6-1.5,0-2c-0.6-0.6-1.1-1.1-1.7-1.7l-2.7-2.7L28.9,16c-0.5-0.5-1.5-0.5-2,0L21.8,21c-0.5,0.5-0.6,1.5,0,2
	C22.4,23.6,23.3,23.6,23.9,23.1C23.9,23.1,23.9,23.1,23.9,23.1z"/>
<path class="st0" d="M13.4,15V2.8c0-0.7-0.7-1.5-1.4-1.4S10.5,2,10.5,2.8V15c0,0.7,0.7,1.5,1.4,1.4C12.7,16.4,13.4,15.8,13.4,15z"/>
<path class="st0" d="M16,8.9l-1.7,1.7l-2.7,2.7L11,13.9h2L7.9,8.9c-0.5-0.5-1.5-0.6-2,0c-0.5,0.6-0.6,1.5,0,2
	C6.5,11.5,7,12,7.6,12.6l2.7,2.7L11,16c0.5,0.5,1.5,0.5,2,0l5.1-5.1c0.5-0.5,0.6-1.5,0-2C17.5,8.3,16.6,8.3,16,8.9
	C16,8.9,16,8.9,16,8.9z"/>
</svg>
