<?xml version="1.0" encoding="utf-8"?>
<!-- Generator: Adobe Illustrator 26.5.0, SVG Export Plug-In . SVG Version: 6.00 Build 0)  -->
<svg version="1.1" id="Layer_1" xmlns="http://www.w3.org/2000/svg" xmlns:xlink="http://www.w3.org/1999/xlink" x="0px" y="0px"
	 viewBox="0 0 36 42" style="enable-background:new 0 0 36 42;" xml:space="preserve">
<style type="text/css">
	.st0{fill:#FFFFFF;}
</style>
<path class="st0" d="M26.4,21.7c8.4,2.8,10.1,9.9,9.4,17.2c-11.9,0-23.8,0-35.7,0C-0.6,32.4,1,24.5,9.6,21.7C7.1,18.9,6.3,15.6,7,12
	c0.5-2.6,1.8-4.8,3.9-6.5c4.3-3.4,10.6-3.3,14.6,0.4C30,9.9,30.3,15.5,26.4,21.7z M4.7,34.4c8.9,0,17.8,0,26.7,0
	c-0.3-4.3-2.1-7.2-6-8.1c-5.2-1.2-10.4-1.4-15.6,0.3C6.6,27.6,4.5,30.9,4.7,34.4z M11.3,14.2c0,3.9,3.1,6.9,6.8,6.9
	c3.6-0.1,6.7-3.1,6.7-6.7c0-3.8-3-6.9-6.8-6.8C14.1,7.6,11.3,10.5,11.3,14.2z"/>
</svg>
