<?xml version="1.0" encoding="utf-8"?>
<!-- Generator: Adobe Illustrator 27.0.1, SVG Export Plug-In . SVG Version: 6.00 Build 0)  -->
<svg version="1.1" id="Layer_1" xmlns="http://www.w3.org/2000/svg" xmlns:xlink="http://www.w3.org/1999/xlink" x="0px" y="0px"
	 viewBox="0 0 36 36" style="enable-background:new 0 0 36 36;" xml:space="preserve">
<style type="text/css">
	.st0{fill:#FFFFFF;}
</style>
<path class="st0" d="M26.4,18.8c8.4,2.8,10.1,9.9,9.4,17.2c-11.9,0-23.8,0-35.7,0c-0.7-6.5,0.9-14.4,9.5-17.2
	C7.2,16,6.4,12.7,7.1,9.1C7.6,6.5,8.9,4.3,11,2.6C15.3-0.8,21.5-0.7,25.5,3C30,7,30.3,12.6,26.4,18.8z M4.8,31.5
	c8.9,0,17.8,0,26.7,0c-0.3-4.3-2.1-7.2-6-8.1c-5.2-1.2-10.4-1.4-15.6,0.3C6.7,24.7,4.6,28,4.8,31.5z M11.4,11.3
	c0,3.9,3.1,6.9,6.8,6.9c3.6-0.1,6.7-3.1,6.7-6.7c0-3.8-3-6.9-6.8-6.8C14.2,4.7,11.4,7.6,11.4,11.3z"/>
</svg>
