<?xml version="1.0" encoding="utf-8"?>
<!-- Generator: Adobe Illustrator 26.5.0, SVG Export Plug-In . SVG Version: 6.00 Build 0)  -->
<svg version="1.1" id="Layer_1" xmlns="http://www.w3.org/2000/svg" xmlns:xlink="http://www.w3.org/1999/xlink" x="0px" y="0px"
	 viewBox="0 0 36 42" style="enable-background:new 0 0 36 42;" xml:space="preserve">
<style type="text/css">
	.st0{fill:#FFFFFF;}
</style>
<path class="st0" d="M24.6,24.5c3.8,3.8,7.6,7.6,11.4,11.4c-1,1-2,2-3.1,3.1c-3.8-3.8-7.6-7.6-11.3-11.4c-7.8,3.9-14.8,2.7-19-3.1
	c-4-5.6-3.4-12.9,1.5-17.7c4.6-4.6,12-5.2,17.2-1.4C26.7,9.3,29.3,17.2,24.6,24.5z M4.5,16.4c0,5,4,9.1,9,9.1c4.9,0,9.1-4.1,9-9
	c0-5-4.1-9.1-9-9C8.6,7.5,4.5,11.6,4.5,16.4z"/>
</svg>
