<?xml version="1.0" encoding="utf-8"?>
<!-- Generator: Adobe Illustrator 26.5.0, SVG Export Plug-In . SVG Version: 6.00 Build 0)  -->
<svg version="1.1" id="Layer_1" xmlns="http://www.w3.org/2000/svg" xmlns:xlink="http://www.w3.org/1999/xlink" x="0px" y="0px"
	 viewBox="0 0 36 42" style="enable-background:new 0 0 36 42;" xml:space="preserve">
<style type="text/css">
	.st0{fill-rule:evenodd;clip-rule:evenodd;fill:#FFFFFF;}
</style>
<path class="st0" d="M35.3,9.3l-6.3,6.2l-5-0.6l-0.6-5l6.3-6.2C26.3,2.4,22.2,3.1,19.3,6c-2.6,2.6-3.4,6.2-2.4,9.5
	c0.1,0.3,0.2,0.5,0.2,0.7c-0.1,0.2-4.6,4.7-6.7,6.8c-3,3-5.9,5.9-8.9,8.9c-1.4,1.4-1.8,3.2-1.1,4.7c0.8,1.7,2.3,2.5,4.3,2.4
	c1.1-0.1,1.9-0.8,2.7-1.5c4.9-4.9,15.5-15.4,15.5-15.4c0.2,0.1,0.1,0,0.4,0.2c3.4,1.1,7.2,0.3,9.9-2.3C36,16.9,36.7,12.8,35.3,9.3z"
	/>
</svg>
