<?xml version="1.0" encoding="utf-8"?>
<!-- Generator: Adobe Illustrator 24.3.0, SVG Export Plug-In . SVG Version: 6.00 Build 0)  -->
<svg version="1.1" id="Layer_1" xmlns="http://www.w3.org/2000/svg" xmlns:xlink="http://www.w3.org/1999/xlink" x="0px" y="0px"
	 width="36px" height="42px" viewBox="0 0 36 42" style="enable-background:new 0 0 36 42;" xml:space="preserve">
<style type="text/css">
	.st0{fill:#DDDCDB;}
	.st1{fill:#FEDA47;}
	.st2{fill:#EDA920;}
	.st3{fill:#CDCCCC;}
</style>
<g>
	<path class="st0" d="M17.6,0.4l-12.1,7v5L0,9.2v21.6l18.7,10.8v-6.3l4.3,2.5l12.1-7V10.5L17.6,0.4z M33.9,30.1L23,36.4l-5.5-3.2
		v6.3L1.2,30.1V11.2l5.5,3.2V8.1l10.9-6.3l16.4,9.5L33.9,30.1L33.9,30.1z"/>
	<g>
		<polygon class="st1" points="15.7,13.3 10.3,16.5 17.6,20.6 23,17.5 		"/>
	</g>
	<g>
		<polygon class="st2" points="23,25.9 17.6,29.1 17.6,20.6 23,17.5 		"/>
	</g>
	<polygon class="st3" points="17.6,3.9 10.3,8.1 23.9,15.9 31.2,11.7 	"/>
	<polygon class="st3" points="24.8,17.5 32.1,13.3 32.1,29.1 24.8,33.3 	"/>
	<polygon class="st3" points="3,14.4 15.7,21.7 15.7,36.4 3,29.1 	"/>
</g>
</svg>
